<svg width="220" height="220" viewBox="0 0 220 220" fill="none" xmlns="http://www.w3.org/2000/svg">
<rect width="220" height="220" fill="#070707"/>
<path d="M41.504 97.6C45.1093 97.6 47.9893 98.3787 50.144 99.936C52.32 101.493 53.408 103.904 53.408 107.168V110.432C53.408 113.76 52.3307 116.192 50.176 117.728C48.0427 119.243 45.152 120 41.504 120H31.296C31.0613 120 30.8587 119.915 30.688 119.744C30.5173 119.573 30.432 119.371 30.432 119.136V98.464C30.432 98.2293 30.5173 98.0267 30.688 97.856C30.8587 97.6853 31.0613 97.6 31.296 97.6H41.504ZM41.664 113.76C42.6667 113.76 43.456 113.525 44.032 113.056C44.6293 112.565 44.928 111.883 44.928 111.008V106.592C44.928 105.717 44.6293 105.045 44.032 104.576C43.456 104.085 42.6667 103.84 41.664 103.84H38.752V113.76H41.664ZM81.4915 119.008C81.5342 119.093 81.5555 119.189 81.5555 119.296C81.5555 119.488 81.4808 119.659 81.3315 119.808C81.2035 119.936 81.0435 120 80.8515 120H73.5875C73.2888 120 73.0115 119.925 72.7555 119.776C72.5208 119.627 72.3502 119.435 72.2435 119.2L69.4275 112.864H66.7395V119.136C66.7395 119.371 66.6542 119.573 66.4835 119.744C66.3128 119.915 66.1102 120 65.8755 120H58.9635C58.7288 120 58.5262 119.915 58.3555 119.744C58.1848 119.573 58.0995 119.371 58.0995 119.136V98.464C58.0995 98.2293 58.1848 98.0267 58.3555 97.856C58.5262 97.6853 58.7288 97.6 58.9635 97.6H71.4115C73.3315 97.6 75.0062 97.9093 76.4355 98.528C77.8862 99.1467 78.9955 100.043 79.7635 101.216C80.5315 102.389 80.9155 103.765 80.9155 105.344C80.9155 108.245 79.7955 110.347 77.5555 111.648L81.4915 119.008ZM70.7395 106.944C71.2088 106.944 71.5715 106.795 71.8275 106.496C72.0835 106.176 72.2115 105.781 72.2115 105.312C72.2115 104.843 72.0835 104.437 71.8275 104.096C71.5928 103.733 71.2302 103.552 70.7395 103.552H66.7395V106.944H70.7395ZM100.327 113.44H106.119C106.354 113.44 106.556 113.525 106.727 113.696C106.898 113.867 106.983 114.069 106.983 114.304V119.136C106.983 119.371 106.898 119.573 106.727 119.744C106.556 119.915 106.354 120 106.119 120H85.831C85.5963 120 85.3937 119.915 85.223 119.744C85.0523 119.573 84.967 119.371 84.967 119.136V114.304C84.967 114.069 85.0523 113.867 85.223 113.696C85.3937 113.525 85.5963 113.44 85.831 113.44H91.687V104.16H85.831C85.5963 104.16 85.3937 104.075 85.223 103.904C85.0523 103.733 84.967 103.531 84.967 103.296V98.464C84.967 98.2293 85.0523 98.0267 85.223 97.856C85.3937 97.6853 85.5963 97.6 85.831 97.6H106.119C106.354 97.6 106.556 97.6853 106.727 97.856C106.898 98.0267 106.983 98.2293 106.983 98.464V103.296C106.983 103.531 106.898 103.733 106.727 103.904C106.556 104.075 106.354 104.16 106.119 104.16H100.327V113.44ZM135.035 97.6C135.227 97.6 135.387 97.6747 135.515 97.824C135.664 97.952 135.739 98.112 135.739 98.304L135.707 98.528L128.347 118.944C128.24 119.243 128.069 119.499 127.835 119.712C127.6 119.904 127.291 120 126.907 120H119.451C119.067 120 118.757 119.904 118.523 119.712C118.288 119.499 118.128 119.275 118.043 119.04L110.618 98.528L110.587 98.304C110.587 98.112 110.651 97.952 110.779 97.824C110.928 97.6747 111.099 97.6 111.291 97.6H118.043C118.427 97.6 118.736 97.7173 118.97 97.952C119.227 98.1653 119.397 98.4 119.483 98.656L123.163 110.912L126.843 98.656C126.928 98.3787 127.088 98.1333 127.323 97.92C127.557 97.7067 127.877 97.6 128.283 97.6H135.035ZM160.718 113.76C160.953 113.76 161.155 113.845 161.326 114.016C161.497 114.187 161.582 114.389 161.582 114.624V119.136C161.582 119.371 161.497 119.573 161.326 119.744C161.155 119.915 160.953 120 160.718 120H140.494C140.259 120 140.057 119.915 139.886 119.744C139.715 119.573 139.63 119.371 139.63 119.136V98.464C139.63 98.2293 139.715 98.0267 139.886 97.856C140.057 97.6853 140.259 97.6 140.494 97.6H160.398C160.633 97.6 160.835 97.6853 161.006 97.856C161.177 98.0267 161.262 98.2293 161.262 98.464V102.976C161.262 103.211 161.177 103.413 161.006 103.584C160.835 103.755 160.633 103.84 160.398 103.84H147.95V105.856H158.638C158.873 105.856 159.075 105.941 159.246 106.112C159.417 106.283 159.502 106.485 159.502 106.72V110.88C159.502 111.115 159.417 111.317 159.246 111.488C159.075 111.659 158.873 111.744 158.638 111.744H147.95V113.76H160.718ZM190.242 119.008C190.284 119.093 190.306 119.189 190.306 119.296C190.306 119.488 190.231 119.659 190.082 119.808C189.954 119.936 189.794 120 189.602 120H182.338C182.039 120 181.762 119.925 181.506 119.776C181.271 119.627 181.1 119.435 180.994 119.2L178.178 112.864H175.49V119.136C175.49 119.371 175.404 119.573 175.234 119.744C175.063 119.915 174.86 120 174.626 120H167.714C167.479 120 167.276 119.915 167.106 119.744C166.935 119.573 166.85 119.371 166.85 119.136V98.464C166.85 98.2293 166.935 98.0267 167.106 97.856C167.276 97.6853 167.479 97.6 167.714 97.6H180.162C182.082 97.6 183.756 97.9093 185.186 98.528C186.636 99.1467 187.746 100.043 188.514 101.216C189.282 102.389 189.666 103.765 189.666 105.344C189.666 108.245 188.546 110.347 186.306 111.648L190.242 119.008ZM179.49 106.944C179.959 106.944 180.322 106.795 180.578 106.496C180.834 106.176 180.962 105.781 180.962 105.312C180.962 104.843 180.834 104.437 180.578 104.096C180.343 103.733 179.98 103.552 179.49 103.552H175.49V106.944H179.49Z" fill="white"/>
</svg>
