<svg width="220" height="220" viewBox="0 0 220 220" fill="none" xmlns="http://www.w3.org/2000/svg">
<rect width="220" height="220" fill="#070707"/>
<path d="M68.304 119.008C68.3467 119.093 68.368 119.189 68.368 119.296C68.368 119.488 68.2933 119.659 68.144 119.808C68.016 119.936 67.856 120 67.664 120H60.4C60.1013 120 59.824 119.925 59.568 119.776C59.3333 119.627 59.1627 119.435 59.056 119.2L56.24 112.864H53.552V119.136C53.552 119.371 53.4667 119.573 53.296 119.744C53.1253 119.915 52.9227 120 52.688 120H45.776C45.5413 120 45.3387 119.915 45.168 119.744C44.9973 119.573 44.912 119.371 44.912 119.136V98.464C44.912 98.2293 44.9973 98.0267 45.168 97.856C45.3387 97.6853 45.5413 97.6 45.776 97.6H58.224C60.144 97.6 61.8187 97.9093 63.248 98.528C64.6987 99.1467 65.808 100.043 66.576 101.216C67.344 102.389 67.728 103.765 67.728 105.344C67.728 108.245 66.608 110.347 64.368 111.648L68.304 119.008ZM57.552 106.944C58.0213 106.944 58.384 106.795 58.64 106.496C58.896 106.176 59.024 105.781 59.024 105.312C59.024 104.843 58.896 104.437 58.64 104.096C58.4053 103.733 58.0427 103.552 57.552 103.552H53.552V106.944H57.552ZM87.1395 113.44H92.9315C93.1662 113.44 93.3688 113.525 93.5395 113.696C93.7102 113.867 93.7955 114.069 93.7955 114.304V119.136C93.7955 119.371 93.7102 119.573 93.5395 119.744C93.3688 119.915 93.1662 120 92.9315 120H72.6435C72.4088 120 72.2062 119.915 72.0355 119.744C71.8648 119.573 71.7795 119.371 71.7795 119.136V114.304C71.7795 114.069 71.8648 113.867 72.0355 113.696C72.2062 113.525 72.4088 113.44 72.6435 113.44H78.4995V104.16H72.6435C72.4088 104.16 72.2062 104.075 72.0355 103.904C71.8648 103.733 71.7795 103.531 71.7795 103.296V98.464C71.7795 98.2293 71.8648 98.0267 72.0355 97.856C72.2062 97.6853 72.4088 97.6 72.6435 97.6H92.9315C93.1662 97.6 93.3688 97.6853 93.5395 97.856C93.7102 98.0267 93.7955 98.2293 93.7955 98.464V103.296C93.7955 103.531 93.7102 103.733 93.5395 103.904C93.3688 104.075 93.1662 104.16 92.9315 104.16H87.1395V113.44ZM109.879 97.6C113.484 97.6 116.364 98.3787 118.519 99.936C120.695 101.493 121.783 103.904 121.783 107.168V110.432C121.783 113.76 120.706 116.192 118.551 117.728C116.418 119.243 113.527 120 109.879 120H99.671C99.4363 120 99.2337 119.915 99.063 119.744C98.8923 119.573 98.807 119.371 98.807 119.136V98.464C98.807 98.2293 98.8923 98.0267 99.063 97.856C99.2337 97.6853 99.4363 97.6 99.671 97.6H109.879ZM110.039 113.76C111.042 113.76 111.831 113.525 112.407 113.056C113.004 112.565 113.303 111.883 113.303 111.008V106.592C113.303 105.717 113.004 105.045 112.407 104.576C111.831 104.085 111.042 103.84 110.039 103.84H107.127V113.76H110.039ZM147.531 113.76C147.765 113.76 147.968 113.845 148.139 114.016C148.309 114.187 148.395 114.389 148.395 114.624V119.136C148.395 119.371 148.309 119.573 148.139 119.744C147.968 119.915 147.765 120 147.531 120H127.307C127.072 120 126.869 119.915 126.699 119.744C126.528 119.573 126.443 119.371 126.443 119.136V98.464C126.443 98.2293 126.528 98.0267 126.699 97.856C126.869 97.6853 127.072 97.6 127.307 97.6H147.211C147.445 97.6 147.648 97.6853 147.819 97.856C147.989 98.0267 148.075 98.2293 148.075 98.464V102.976C148.075 103.211 147.989 103.413 147.819 103.584C147.648 103.755 147.445 103.84 147.211 103.84H134.763V105.856H145.451C145.685 105.856 145.888 105.941 146.059 106.112C146.229 106.283 146.315 106.485 146.315 106.72V110.88C146.315 111.115 146.229 111.317 146.059 111.488C145.888 111.659 145.685 111.744 145.451 111.744H134.763V113.76H147.531ZM177.054 119.008C177.097 119.093 177.118 119.189 177.118 119.296C177.118 119.488 177.043 119.659 176.894 119.808C176.766 119.936 176.606 120 176.414 120H169.15C168.851 120 168.574 119.925 168.318 119.776C168.083 119.627 167.913 119.435 167.806 119.2L164.99 112.864H162.302V119.136C162.302 119.371 162.217 119.573 162.046 119.744C161.875 119.915 161.673 120 161.438 120H154.526C154.291 120 154.089 119.915 153.918 119.744C153.747 119.573 153.662 119.371 153.662 119.136V98.464C153.662 98.2293 153.747 98.0267 153.918 97.856C154.089 97.6853 154.291 97.6 154.526 97.6H166.974C168.894 97.6 170.569 97.9093 171.998 98.528C173.449 99.1467 174.558 100.043 175.326 101.216C176.094 102.389 176.478 103.765 176.478 105.344C176.478 108.245 175.358 110.347 173.118 111.648L177.054 119.008ZM166.302 106.944C166.771 106.944 167.134 106.795 167.39 106.496C167.646 106.176 167.774 105.781 167.774 105.312C167.774 104.843 167.646 104.437 167.39 104.096C167.155 103.733 166.793 103.552 166.302 103.552H162.302V106.944H166.302Z" fill="white"/>
</svg>
